<svg width="37" height="36" viewBox="0 0 37 36" fill="none" xmlns="http://www.w3.org/2000/svg">
<g clip-path="url(#clip0_1_858)">
<path d="M22.7801 17.2997L10.9556 15.1997V30.7166C10.9556 31.4252 11.5264 31.9997 12.2305 31.9997H32.6341C33.3382 31.9997 33.9091 31.4252 33.9091 30.7166V24.9997L22.7801 17.2997Z" fill="#185C37"/>
<path d="M22.7801 4H12.2305C11.5264 4 10.9556 4.57446 10.9556 5.2831V11L22.7801 18L29.0401 20.1L33.9091 18V11L22.7801 4Z" fill="#21A366"/>
<path d="M10.9556 11H22.7801V18H10.9556V11Z" fill="#107C41"/>
<path opacity="0.1" d="M19.4185 9.60059H10.9556V27.1006H19.4185C20.1216 27.0983 20.6911 26.5252 20.6934 25.8175V10.8837C20.6911 10.176 20.1216 9.60289 19.4185 9.60059Z" fill="black"/>
<path opacity="0.2" d="M18.7229 10.3003H10.9556V27.8003H18.7229C19.4261 27.798 19.9956 27.2249 19.9978 26.5172V11.5834C19.9956 10.8757 19.4261 10.3026 18.7229 10.3003Z" fill="black"/>
<path opacity="0.2" d="M18.7229 10.3003H10.9556V26.4003H18.7229C19.4261 26.398 19.9956 25.8249 19.9978 25.1172V11.5834C19.9956 10.8757 19.4261 10.3026 18.7229 10.3003Z" fill="black"/>
<path opacity="0.2" d="M18.0273 10.3003H10.9556V26.4003H18.0273C18.7305 26.398 19.3 25.8249 19.3023 25.1172V11.5834C19.3 10.8757 18.7305 10.3026 18.0273 10.3003Z" fill="black"/>
<path d="M5.27496 10.3003H18.0274C18.7315 10.3003 19.3023 10.8748 19.3023 11.5834V24.4172C19.3023 25.1258 18.7315 25.7003 18.0274 25.7003H5.27496C4.57082 25.7003 4 25.1258 4 24.4172V11.5834C4 10.8748 4.57082 10.3003 5.27496 10.3003Z" fill="url(#paint0_linear_1_858)"/>
<path d="M7.94873 22.1705L10.6308 17.988L8.1734 13.8286H10.1502L11.4912 16.4886C11.615 16.7413 11.6999 16.9289 11.7458 17.0528H11.7632C11.8513 16.8512 11.944 16.6554 12.0414 16.4655L13.475 13.83H15.2897L12.7696 17.9649L15.3537 22.1705H13.4228L11.8738 19.2508C11.8008 19.1266 11.7389 18.9961 11.6888 18.8609H11.6658C11.6204 18.9934 11.5602 19.1202 11.4864 19.2389L9.89144 22.1705H7.94873Z" fill="white"/>
<path d="M32.634 4H22.78V11H33.909V5.2831C33.909 4.57446 33.3382 4 32.634 4Z" fill="#33C481"/>
<path d="M22.78 18H33.909V25H22.78V18Z" fill="#107C41"/>
</g>
<defs>
<linearGradient id="paint0_linear_1_858" x1="6.65832" y1="9.2977" x2="16.7396" y2="26.6473" gradientUnits="userSpaceOnUse">
<stop stop-color="#18884F"/>
<stop offset="0.5" stop-color="#117E43"/>
<stop offset="1" stop-color="#0B6631"/>
</linearGradient>
<clipPath id="clip0_1_858">
<rect width="29.9091" height="28" fill="white" transform="translate(4 4)"/>
</clipPath>
</defs>
</svg>
