<svg width="36" height="39" viewBox="0 0 36 39" fill="none" xmlns="http://www.w3.org/2000/svg">
<path d="M31.6094 0H4.39064C3.84244 0.00118037 3.29986 0.106031 2.79388 0.308561C2.28791 0.511092 1.82845 0.807335 1.44176 1.18037C1.05507 1.5534 0.748726 1.99591 0.540221 2.48263C0.331716 2.96935 0.225139 3.49073 0.226577 4.017V30.381C0.225139 30.9073 0.331716 31.4287 0.540221 31.9154C0.748726 32.4021 1.05507 32.8446 1.44176 33.2176C1.82845 33.5907 2.28791 33.8869 2.79388 34.0894C3.29986 34.292 3.84244 34.3968 4.39064 34.398H27.425L26.3485 30.7905L28.9485 33.111L31.4063 35.295L35.7735 39V4.017C35.7749 3.49073 35.6683 2.96935 35.4598 2.48263C35.2513 1.99591 34.945 1.5534 34.5583 1.18037C34.1716 0.807335 33.7121 0.511092 33.2062 0.308561C32.7002 0.106031 32.1576 0.00118037 31.6094 0ZM23.7688 25.467C23.7688 25.467 23.0375 24.6285 22.4281 23.8875C23.9005 23.5547 25.2028 22.7327 26.1047 21.567C25.3738 22.0339 24.5902 22.4199 23.7688 22.7175C22.8238 23.1047 21.8355 23.3861 20.8235 23.556C19.0838 23.8635 17.2997 23.8569 15.5625 23.5365C14.5427 23.3449 13.5432 23.0643 12.5766 22.698C12.0671 22.5099 11.5716 22.2884 11.0938 22.035C11.0328 21.996 10.9719 21.9765 10.911 21.9375C10.8804 21.9229 10.8529 21.9031 10.8297 21.879C10.6348 21.7771 10.4451 21.6664 10.261 21.5475C11.1302 22.6888 12.3876 23.5027 13.8156 23.8485C13.2063 24.5895 12.4547 25.467 12.4547 25.467C11.2481 25.4982 10.052 25.2442 8.97167 24.7274C7.89134 24.2105 6.95993 23.4466 6.25939 22.503C6.32534 18.5498 7.32548 14.6626 9.18439 11.1345C10.8202 9.90106 12.8146 9.18562 14.8922 9.087L15.0953 9.321C13.1407 9.78536 11.3167 10.6575 9.75314 11.8755C9.75314 11.8755 10.2 11.6415 10.9516 11.31C12.4117 10.6702 13.9678 10.2556 15.5625 10.0815C15.6762 10.0589 15.7918 10.0459 15.9078 10.0425C17.269 9.87225 18.6465 9.85916 20.011 10.0035C22.1566 10.2387 24.2337 10.8747 26.125 11.8755C24.6407 10.7156 22.9167 9.87149 21.0672 9.399L21.3516 9.087C23.4291 9.18562 25.4235 9.90106 27.0594 11.1345C28.9183 14.6626 29.9184 18.5498 29.9844 22.503C29.2782 23.4457 28.3428 24.2085 27.2595 24.7251C26.1763 25.2416 24.9779 25.4963 23.7688 25.467Z" fill="white"/>
</svg>
