<svg width="37" height="36" viewBox="0 0 37 36" fill="none" xmlns="http://www.w3.org/2000/svg">
<path d="M33.9666 0H3.36663C1.86663 0 0.666626 1.2 0.666626 2.55V33.3C0.666626 34.65 1.86663 35.85 3.36663 35.85H33.9666C35.4666 35.85 36.6666 34.65 36.6666 33.3V2.55C36.6666 1.2 35.4666 0 33.9666 0ZM11.3166 30.6H6.06663V13.5H11.3166V30.6ZM8.76663 11.1C7.11663 11.1 5.61663 9.75 5.61663 7.95C5.61663 6.15 6.96663 4.8 8.76663 4.8C10.4166 4.8 11.9166 6.15 11.9166 7.95C11.9166 9.75 10.4166 11.1 8.76663 11.1ZM31.4166 30.45H26.1666V22.05C26.1666 20.1 26.1666 17.4 23.3166 17.4C20.4666 17.4 20.1666 19.65 20.1666 21.75V30.3H14.9166V13.5H19.8666V15.75H20.0166C20.7666 14.4 22.5666 12.9 25.1166 12.9C30.5166 12.9 31.5666 16.5 31.5666 21.15V30.45H31.4166Z" fill="white"/>
</svg>
