<svg width="13" height="5" viewBox="0 0 13 5" fill="none" xmlns="http://www.w3.org/2000/svg">
<path d="M3.32349 0.360508C2.86951 0.323657 2.41451 0.419242 2.01806 0.634751C1.6216 0.85026 1.30216 1.17565 1.10153 1.56834C0.900909 1.96103 0.828452 2.40272 0.893647 2.83559C0.958842 3.26847 1.15865 3.67236 1.46692 3.99442C1.77519 4.31647 2.17756 4.54167 2.62137 4.64055C3.06517 4.73943 3.52974 4.70738 3.95425 4.54859C4.37877 4.3898 4.74346 4.11168 5.00059 3.75062C5.25772 3.38956 5.39532 2.96238 5.39536 2.52501C5.40752 2.25225 5.36356 1.97987 5.26599 1.72343C5.16842 1.467 5.01916 1.23154 4.82674 1.03051C4.63432 0.829491 4.40251 0.666848 4.14457 0.551884C3.88664 0.43692 3.60762 0.371888 3.32349 0.360508ZM10.7376 0.360508C10.2836 0.323657 9.82858 0.419242 9.43212 0.634751C9.03567 0.85026 8.71622 1.17565 8.5156 1.56834C8.31497 1.96103 8.24252 2.40272 8.30771 2.83559C8.37291 3.26847 8.57272 3.67236 8.88099 3.99442C9.18926 4.31647 9.59163 4.54167 10.0354 4.64055C10.4792 4.73943 10.9438 4.70738 11.3683 4.54859C11.7928 4.3898 12.1575 4.11168 12.4147 3.75062C12.6718 3.38956 12.8094 2.96238 12.8094 2.52501C12.8216 2.25225 12.7776 1.97987 12.6801 1.72343C12.5825 1.467 12.4332 1.23154 12.2408 1.03051C12.0484 0.829491 11.8166 0.666848 11.5586 0.551884C11.3007 0.43692 11.0217 0.371888 10.7376 0.360508Z" fill="white"/>
</svg>
